# xmcd
#
# Track frame offsets:
#	150
#	16196
#	35990
#	53917
#	74969
#	90437
#	106718
#	121661
#	140511
#	160758
#	178732
#	201328
#	217852
#	241927
#	259182
#	278443
#
# Disc length: 3969 seconds
#
# Revision: 3
# Processed by: cddbd v1.5.2PL0 Copyright (c) Steve Scherf et al.
# Submitted via: EasyCDDAExtractor 15.3.0.1
#
DISCID=df0f7f10
DTITLE=Maria Conchita Alonso - La Mas Completa Coleccion - CD 1
DYEAR=2005
DGENRE=Latin
TTITLE0=Noche De Copas
TTITLE1=Soy El Amor
TTITLE2=Ganar O Perder
TTITLE3=Dueño De Mi Cuerpo
TTITLE4=No Encuentro Paz
TTITLE5=Lluvia De Amor
TTITLE6=Tu Eres El Hombre
TTITLE7=Matame
TTITLE8=Hielo
TTITLE9=La Loca
TTITLE10=El Tonto Aquel
TTITLE11=Y Es Que Llegaste Tu
TTITLE12=Atacame
TTITLE13=Hazme Sentir
TTITLE14=Mirame
TTITLE15=Enamorada De Ti
EXTD=
EXTT0=
EXTT1=
EXTT2=
EXTT3=
EXTT4=
EXTT5=
EXTT6=
EXTT7=
EXTT8=
EXTT9=
EXTT10=
EXTT11=
EXTT12=
EXTT13=
EXTT14=
EXTT15=
PLAYORDER=
